<svg xmlns="http://www.w3.org/2000/svg" viewBox="0 0 1080 800">
<defs><linearGradient id="b" x2="1" y2="1"><stop stop-color="#07314f"/><stop offset="1" stop-color="#0077b6"/></linearGradient><linearGradient id="w" x2="0" y2="1"><stop stop-color="#62ddeb"/><stop offset="1" stop-color="#0b6bb0"/></linearGradient></defs>
<rect width="1080" height="800" fill="url(#b)"/><circle cx="870" cy="140" r="210" fill="#c0f1ff" opacity=".11"/><path d="M0 450C190 410 285 492 458 442S806 382 1080 446V800H0Z" fill="#11426a"/>
<path d="M135 585C255 575 356 600 465 562S755 548 945 560V720H135Z" fill="url(#w)"/><path d="M135 585C255 575 356 600 465 562S755 548 945 560" fill="none" stroke="#b2f6fb" stroke-width="7"/>
<path d="M550 165L660 165 690 585 535 585Z" fill="#e2f7ff" fill-opacity=".78"/><path d="M540 170L660 170 680 420 550 420Z" fill="#ffffff" fill-opacity=".18"/><path d="M690 574H915" stroke="#c6fff4" stroke-width="20" stroke-linecap="round"/><path d="M902 556L943 574 902 592" fill="none" stroke="#c6fff4" stroke-width="12" stroke-linecap="round" stroke-linejoin="round"/>
<path d="M260 280C260 230 310 230 310 280S260 360 260 360 210 330 210 280C210 230 260 230 260 280Z" fill="#8be6f3" opacity=".85"/><path d="M380 210C380 170 420 170 420 210S380 278 380 278 340 250 340 210C340 170 380 170 380 210Z" fill="#8be6f3" opacity=".6"/><g fill="#fff" opacity=".3"><circle cx="220" cy="610" r="10"/><circle cx="350" cy="650" r="7"/><circle cx="790" cy="640" r="11"/></g>
</svg>
